<?xml version="1.0" encoding="UTF-8" standalone="no"?>
<!DOCTYPE svg PUBLIC "-//W3C//DTD SVG 1.1//EN" "http://www.w3.org/Graphics/SVG/1.1/DTD/svg11.dtd">
<svg xmlns="http://www.w3.org/2000/svg" version="1.1" viewBox="0.00 0.00 500.00 500.00">
<g stroke-width="2.00" fill="none" stroke-linecap="butt">
<path stroke="#7f7d6c" vector-effect="non-scaling-stroke" d="
  M 359.43 316.13
  Q 359.24 279.52 359.34 243.24
  Q 359.38 232.45 358.20 229.36
  Q 355.05 221.09 346.95 217.98
  Q 343.73 216.75 336.80 216.75
  Q 255.50 216.77 174.20 216.74"
/>
<path stroke="#7f7d6c" vector-effect="non-scaling-stroke" d="
  M 144.47 358.92
  Q 150.64 359.56 156.25 359.42
  Q 157.47 359.38 156.29 359.08
  Q 145.67 356.32 142.06 347.42
  Q 140.62 343.87 140.64 333.37
  Q 140.72 295.57 140.66 258.15"
/>
<path stroke="#2c3138" vector-effect="non-scaling-stroke" d="
  M 349.9907 236.2044
  A 9.81 9.81 0.0 0 0 340.1978 226.3773
  L 160.0381 226.0629
  A 9.81 9.81 0.0 0 0 150.2110 235.8557
  L 150.0293 339.9156
  A 9.81 9.81 0.0 0 0 159.8222 349.7427
  L 339.9819 350.0571
  A 9.81 9.81 0.0 0 0 349.8090 340.2643
  L 349.9907 236.2044"
/>
<path stroke="#2c3138" vector-effect="non-scaling-stroke" d="
  M 188.20 240.46
  A 4.67 4.67 0.0 0 0 183.53 235.79
  L 164.37 235.79
  A 4.67 4.67 0.0 0 0 159.70 240.46
  L 159.70 259.56
  A 4.67 4.67 0.0 0 0 164.37 264.23
  L 183.53 264.23
  A 4.67 4.67 0.0 0 0 188.20 259.56
  L 188.20 240.46"
/>
<path stroke="#2c3138" vector-effect="non-scaling-stroke" d="
  M 226.2133 240.4052
  A 4.66 4.66 0.0 0 0 221.5451 235.7533
  L 202.4052 235.7867
  A 4.66 4.66 0.0 0 0 197.7533 240.4549
  L 197.7867 259.5948
  A 4.66 4.66 0.0 0 0 202.4549 264.2467
  L 221.5948 264.2133
  A 4.66 4.66 0.0 0 0 226.2467 259.5451
  L 226.2133 240.4052"
/>
<path stroke="#2c3138" vector-effect="non-scaling-stroke" d="
  M 264.2132 240.3852
  A 4.63 4.63 0.0 0 0 259.5751 235.7633
  L 240.3952 235.7968
  A 4.63 4.63 0.0 0 0 235.7733 240.4348
  L 235.8068 259.6348
  A 4.63 4.63 0.0 0 0 240.4449 264.2567
  L 259.6248 264.2232
  A 4.63 4.63 0.0 0 0 264.2467 259.5852
  L 264.2132 240.3852"
/>
<path stroke="#2c3138" vector-effect="non-scaling-stroke" d="
  M 302.2332 240.3652
  A 4.62 4.62 0.0 0 0 297.6051 235.7533
  L 278.4052 235.7868
  A 4.62 4.62 0.0 0 0 273.7932 240.4148
  L 273.8268 259.6348
  A 4.62 4.62 0.0 0 0 278.4549 264.2467
  L 297.6548 264.2132
  A 4.62 4.62 0.0 0 0 302.2668 259.5852
  L 302.2332 240.3652"
/>
<path stroke="#2c3138" vector-effect="non-scaling-stroke" d="
  M 340.31 240.49
  A 4.72 4.72 0.0 0 0 335.59 235.77
  L 316.51 235.77
  A 4.72 4.72 0.0 0 0 311.79 240.49
  L 311.79 259.51
  A 4.72 4.72 0.0 0 0 316.51 264.23
  L 335.59 264.23
  A 4.72 4.72 0.0 0 0 340.31 259.51
  L 340.31 240.49"
/>
<path stroke="#2c3138" vector-effect="non-scaling-stroke" d="
  M 188.1934 278.4451
  A 4.69 4.69 0.0 0 0 183.4952 273.7633
  L 164.3752 273.7967
  A 4.69 4.69 0.0 0 0 159.6934 278.4949
  L 159.7266 297.5149
  A 4.69 4.69 0.0 0 0 164.4248 302.1967
  L 183.5448 302.1633
  A 4.69 4.69 0.0 0 0 188.2266 297.4651
  L 188.1934 278.4451"
/>
<path stroke="#2c3138" vector-effect="non-scaling-stroke" d="
  M 226.2635 278.4297
  A 4.61 4.61 0.0 0 0 221.6696 273.8037
  L 202.4297 273.7365
  A 4.61 4.61 0.0 0 0 197.8037 278.3304
  L 197.7365 297.5703
  A 4.61 4.61 0.0 0 0 202.3304 302.1963
  L 221.5703 302.2635
  A 4.61 4.61 0.0 0 0 226.1963 297.6696
  L 226.2635 278.4297"
/>
<path stroke="#2c3138" vector-effect="non-scaling-stroke" d="
  M 264.2232 278.3652
  A 4.62 4.62 0.0 0 0 259.5951 273.7532
  L 240.3752 273.7868
  A 4.62 4.62 0.0 0 0 235.7632 278.4149
  L 235.7968 297.6348
  A 4.62 4.62 0.0 0 0 240.4249 302.2468
  L 259.6448 302.2132
  A 4.62 4.62 0.0 0 0 264.2568 297.5851
  L 264.2232 278.3652"
/>
<path stroke="#2c3138" vector-effect="non-scaling-stroke" d="
  M 302.2232 278.3752
  A 4.63 4.63 0.0 0 0 297.5851 273.7533
  L 278.3852 273.7868
  A 4.63 4.63 0.0 0 0 273.7633 278.4249
  L 273.7968 297.6248
  A 4.63 4.63 0.0 0 0 278.4349 302.2467
  L 297.6348 302.2132
  A 4.63 4.63 0.0 0 0 302.2567 297.5751
  L 302.2232 278.3752"
/>
<path stroke="#2c3138" vector-effect="non-scaling-stroke" d="
  M 340.33 278.43
  A 4.66 4.66 0.0 0 0 335.67 273.77
  L 316.53 273.77
  A 4.66 4.66 0.0 0 0 311.87 278.43
  L 311.87 297.53
  A 4.66 4.66 0.0 0 0 316.53 302.19
  L 335.67 302.19
  A 4.66 4.66 0.0 0 0 340.33 297.53
  L 340.33 278.43"
/>
<path stroke="#2c3138" vector-effect="non-scaling-stroke" d="
  M 302.24 316.48
  A 4.70 4.70 0.0 0 0 297.54 311.78
  L 202.48 311.78
  A 4.70 4.70 0.0 0 0 197.78 316.48
  L 197.78 335.58
  A 4.70 4.70 0.0 0 0 202.48 340.28
  L 297.54 340.28
  A 4.70 4.70 0.0 0 0 302.24 335.58
  L 302.24 316.48"
/>
<path stroke="#7f6c43" vector-effect="non-scaling-stroke" d="
  M 178.6255 245.5764
  A 0.32 0.32 0.0 0 0 178.3066 245.2553
  L 169.5666 245.2248
  A 0.32 0.32 0.0 0 0 169.2455 245.5437
  L 169.2145 254.4236
  A 0.32 0.32 0.0 0 0 169.5334 254.7447
  L 178.2734 254.7752
  A 0.32 0.32 0.0 0 0 178.5945 254.4563
  L 178.6255 245.5764"
/>
<path stroke="#7f6c43" vector-effect="non-scaling-stroke" d="
  M 216.73 245.58
  A 0.34 0.34 0.0 0 0 216.39 245.24
  L 207.57 245.24
  A 0.34 0.34 0.0 0 0 207.23 245.58
  L 207.23 254.42
  A 0.34 0.34 0.0 0 0 207.57 254.76
  L 216.39 254.76
  A 0.34 0.34 0.0 0 0 216.73 254.42
  L 216.73 245.58"
/>
<path stroke="#7f6c43" vector-effect="non-scaling-stroke" d="
  M 254.7348 245.6334
  A 0.41 0.41 0.0 0 0 254.3234 245.2248
  L 245.6234 245.2552
  A 0.41 0.41 0.0 0 0 245.2148 245.6666
  L 245.2452 254.3666
  A 0.41 0.41 0.0 0 0 245.6566 254.7752
  L 254.3566 254.7448
  A 0.41 0.41 0.0 0 0 254.7652 254.3334
  L 254.7348 245.6334"
/>
<path stroke="#7f6c43" vector-effect="non-scaling-stroke" d="
  M 292.7622 245.5317
  A 0.30 0.30 0.0 0 0 292.4617 245.2322
  L 283.5617 245.2478
  A 0.30 0.30 0.0 0 0 283.2622 245.5483
  L 283.2778 254.4683
  A 0.30 0.30 0.0 0 0 283.5783 254.7678
  L 292.4783 254.7522
  A 0.30 0.30 0.0 0 0 292.7778 254.4517
  L 292.7622 245.5317"
/>
<path stroke="#7f6c43" vector-effect="non-scaling-stroke" d="
  M 330.8054 245.5865
  A 0.34 0.34 0.0 0 0 330.4666 245.2453
  L 321.7267 245.2148
  A 0.34 0.34 0.0 0 0 321.3855 245.5536
  L 321.3546 254.4135
  A 0.34 0.34 0.0 0 0 321.6934 254.7547
  L 330.4333 254.7852
  A 0.34 0.34 0.0 0 0 330.7745 254.4464
  L 330.8054 245.5865"
/>
<path stroke="#7f6c43" vector-effect="non-scaling-stroke" d="
  M 178.6175 283.7082
  A 0.45 0.45 0.0 0 0 178.1683 283.2574
  L 169.6883 283.2426
  A 0.45 0.45 0.0 0 0 169.2375 283.6918
  L 169.2225 292.2918
  A 0.45 0.45 0.0 0 0 169.6717 292.7426
  L 178.1517 292.7574
  A 0.45 0.45 0.0 0 0 178.6025 292.3082
  L 178.6175 283.7082"
/>
<path stroke="#7f6c43" vector-effect="non-scaling-stroke" d="
  M 216.6922 283.5718
  A 0.30 0.30 0.0 0 0 216.3917 283.2723
  L 207.5517 283.2877
  A 0.30 0.30 0.0 0 0 207.2523 283.5882
  L 207.2678 292.4682
  A 0.30 0.30 0.0 0 0 207.5683 292.7677
  L 216.4083 292.7523
  A 0.30 0.30 0.0 0 0 216.7077 292.4518
  L 216.6922 283.5718"
/>
<path stroke="#7f6c43" vector-effect="non-scaling-stroke" d="
  M 254.74 283.72
  A 0.45 0.45 0.0 0 0 254.29 283.27
  L 245.71 283.27
  A 0.45 0.45 0.0 0 0 245.26 283.72
  L 245.26 292.30
  A 0.45 0.45 0.0 0 0 245.71 292.75
  L 254.29 292.75
  A 0.45 0.45 0.0 0 0 254.74 292.30
  L 254.74 283.72"
/>
<path stroke="#7f6c43" vector-effect="non-scaling-stroke" d="
  M 292.7149 283.6736
  A 0.41 0.41 0.0 0 0 292.3035 283.2650
  L 283.7035 283.2950
  A 0.41 0.41 0.0 0 0 283.2949 283.7065
  L 283.3251 292.3464
  A 0.41 0.41 0.0 0 0 283.7365 292.7550
  L 292.3365 292.7250
  A 0.41 0.41 0.0 0 0 292.7451 292.3135
  L 292.7149 283.6736"
/>
<path stroke="#7f6c43" vector-effect="non-scaling-stroke" d="
  M 330.7675 283.7082
  A 0.43 0.43 0.0 0 0 330.3383 283.2774
  L 321.8583 283.2626
  A 0.43 0.43 0.0 0 0 321.4275 283.6919
  L 321.4125 292.3318
  A 0.43 0.43 0.0 0 0 321.8417 292.7626
  L 330.3217 292.7774
  A 0.43 0.43 0.0 0 0 330.7525 292.3481
  L 330.7675 283.7082"
/>
<path stroke="#7f6c43" vector-effect="non-scaling-stroke" d="
  M 292.80 321.72
  A 0.40 0.40 0.0 0 0 292.40 321.32
  L 207.58 321.32
  A 0.40 0.40 0.0 0 0 207.18 321.72
  L 207.18 330.38
  A 0.40 0.40 0.0 0 0 207.58 330.78
  L 292.40 330.78
  A 0.40 0.40 0.0 0 0 292.80 330.38
  L 292.80 321.72"
/>
</g>
<path fill="#fdfad7" d="
  M 359.43 316.13
  Q 359.24 279.52 359.34 243.24
  Q 359.38 232.45 358.20 229.36
  Q 355.05 221.09 346.95 217.98
  Q 343.73 216.75 336.80 216.75
  Q 255.50 216.77 174.20 216.74
  C 174.60 215.71 174.84 214.87 175.65 214.15
  Q 193.26 198.57 215.65 194.13
  Q 224.22 192.43 239.08 190.76
  C 251.49 189.36 263.77 187.89 275.72 185.29
  C 283.83 183.53 292.43 183.13 300.61 184.32
  Q 305.84 185.09 311.03 186.27
  C 334.23 191.53 353.69 205.41 365.34 225.99
  Q 377.01 246.59 375.77 271.24
  Q 374.52 296.11 359.43 316.13
  Z"
/>
<path fill="#000000" d="
  M 120.51 199.01
  Q 120.75 201.55 120.47 203.65
  Q 120.24 205.37 118.31 205.80
  Q 117.97 205.87 117.64 205.77
  Q 115.25 205.06 115.25 202.57
  L 115.25 198.98
  Q 115.25 198.22 114.48 198.22
  L 110.44 198.22
  Q 107.66 198.22 107.72 195.44
  L 107.73 195.10
  Q 107.78 192.74 110.15 192.74
  L 114.50 192.74
  Q 115.25 192.74 115.25 191.99
  L 115.25 188.44
  Q 115.25 185.89 117.68 185.13
  Q 118.05 185.01 118.45 185.15
  Q 120.58 185.90 120.58 188.17
  L 120.57 192.03
  Q 120.57 192.73 121.28 192.73
  L 125.51 192.74
  A 2.57 2.57 0.0 0 1 128.08 195.36
  Q 128.07 195.80 127.94 196.20
  Q 127.31 198.23 125.19 198.22
  L 121.23 198.22
  Q 120.44 198.22 120.51 199.01
  Z"
/>
<circle fill="#000000" cx="377.58" cy="205.14" r="4.94"/>
<path fill="#000000" d="
  M 174.20 216.74
  Q 255.50 216.77 336.80 216.75
  Q 343.73 216.75 346.95 217.98
  Q 355.05 221.09 358.20 229.36
  Q 359.38 232.45 359.34 243.24
  Q 359.24 279.52 359.43 316.13
  Q 359.35 325.45 359.36 335.02
  Q 359.36 343.85 358.03 347.21
  Q 354.45 356.17 344.49 358.87
  Q 343.02 359.27 344.54 359.27
  Q 378.39 359.21 414.78 359.30
  Q 416.68 359.31 417.73 361.72
  Q 417.91 362.14 417.84 362.58
  Q 417.34 365.68 414.20 365.68
  L 91.53 365.68
  Q 88.84 365.68 87.91 363.16
  Q 87.76 362.77 87.85 362.37
  Q 88.50 359.24 91.06 359.26
  Q 118.33 359.42 144.47 358.92
  Q 150.64 359.56 156.25 359.42
  Q 157.47 359.38 156.29 359.08
  Q 145.67 356.32 142.06 347.42
  Q 140.62 343.87 140.64 333.37
  Q 140.72 295.57 140.66 258.15
  Q 140.41 239.87 140.70 234.50
  Q 141.04 228.24 145.64 223.14
  Q 151.27 216.91 159.75 216.84
  Q 166.99 216.77 174.20 216.74
  Z
  M 349.9907 236.2044
  A 9.81 9.81 0.0 0 0 340.1978 226.3773
  L 160.0381 226.0629
  A 9.81 9.81 0.0 0 0 150.2110 235.8557
  L 150.0293 339.9156
  A 9.81 9.81 0.0 0 0 159.8222 349.7427
  L 339.9819 350.0571
  A 9.81 9.81 0.0 0 0 349.8090 340.2643
  L 349.9907 236.2044
  Z"
/>
<path fill="#586170" d="
  M 349.8090 340.2643
  A 9.81 9.81 0.0 0 1 339.9819 350.0571
  L 159.8222 349.7427
  A 9.81 9.81 0.0 0 1 150.0293 339.9156
  L 150.2110 235.8557
  A 9.81 9.81 0.0 0 1 160.0381 226.0629
  L 340.1978 226.3773
  A 9.81 9.81 0.0 0 1 349.9907 236.2044
  L 349.8090 340.2643
  Z
  M 188.20 240.46
  A 4.67 4.67 0.0 0 0 183.53 235.79
  L 164.37 235.79
  A 4.67 4.67 0.0 0 0 159.70 240.46
  L 159.70 259.56
  A 4.67 4.67 0.0 0 0 164.37 264.23
  L 183.53 264.23
  A 4.67 4.67 0.0 0 0 188.20 259.56
  L 188.20 240.46
  Z
  M 226.2133 240.4052
  A 4.66 4.66 0.0 0 0 221.5451 235.7533
  L 202.4052 235.7867
  A 4.66 4.66 0.0 0 0 197.7533 240.4549
  L 197.7867 259.5948
  A 4.66 4.66 0.0 0 0 202.4549 264.2467
  L 221.5948 264.2133
  A 4.66 4.66 0.0 0 0 226.2467 259.5451
  L 226.2133 240.4052
  Z
  M 264.2132 240.3852
  A 4.63 4.63 0.0 0 0 259.5751 235.7633
  L 240.3952 235.7968
  A 4.63 4.63 0.0 0 0 235.7733 240.4348
  L 235.8068 259.6348
  A 4.63 4.63 0.0 0 0 240.4449 264.2567
  L 259.6248 264.2232
  A 4.63 4.63 0.0 0 0 264.2467 259.5852
  L 264.2132 240.3852
  Z
  M 302.2332 240.3652
  A 4.62 4.62 0.0 0 0 297.6051 235.7533
  L 278.4052 235.7868
  A 4.62 4.62 0.0 0 0 273.7932 240.4148
  L 273.8268 259.6348
  A 4.62 4.62 0.0 0 0 278.4549 264.2467
  L 297.6548 264.2132
  A 4.62 4.62 0.0 0 0 302.2668 259.5852
  L 302.2332 240.3652
  Z
  M 340.31 240.49
  A 4.72 4.72 0.0 0 0 335.59 235.77
  L 316.51 235.77
  A 4.72 4.72 0.0 0 0 311.79 240.49
  L 311.79 259.51
  A 4.72 4.72 0.0 0 0 316.51 264.23
  L 335.59 264.23
  A 4.72 4.72 0.0 0 0 340.31 259.51
  L 340.31 240.49
  Z
  M 188.1934 278.4451
  A 4.69 4.69 0.0 0 0 183.4952 273.7633
  L 164.3752 273.7967
  A 4.69 4.69 0.0 0 0 159.6934 278.4949
  L 159.7266 297.5149
  A 4.69 4.69 0.0 0 0 164.4248 302.1967
  L 183.5448 302.1633
  A 4.69 4.69 0.0 0 0 188.2266 297.4651
  L 188.1934 278.4451
  Z
  M 226.2635 278.4297
  A 4.61 4.61 0.0 0 0 221.6696 273.8037
  L 202.4297 273.7365
  A 4.61 4.61 0.0 0 0 197.8037 278.3304
  L 197.7365 297.5703
  A 4.61 4.61 0.0 0 0 202.3304 302.1963
  L 221.5703 302.2635
  A 4.61 4.61 0.0 0 0 226.1963 297.6696
  L 226.2635 278.4297
  Z
  M 264.2232 278.3652
  A 4.62 4.62 0.0 0 0 259.5951 273.7532
  L 240.3752 273.7868
  A 4.62 4.62 0.0 0 0 235.7632 278.4149
  L 235.7968 297.6348
  A 4.62 4.62 0.0 0 0 240.4249 302.2468
  L 259.6448 302.2132
  A 4.62 4.62 0.0 0 0 264.2568 297.5851
  L 264.2232 278.3652
  Z
  M 302.2232 278.3752
  A 4.63 4.63 0.0 0 0 297.5851 273.7533
  L 278.3852 273.7868
  A 4.63 4.63 0.0 0 0 273.7633 278.4249
  L 273.7968 297.6248
  A 4.63 4.63 0.0 0 0 278.4349 302.2467
  L 297.6348 302.2132
  A 4.63 4.63 0.0 0 0 302.2567 297.5751
  L 302.2232 278.3752
  Z
  M 340.33 278.43
  A 4.66 4.66 0.0 0 0 335.67 273.77
  L 316.53 273.77
  A 4.66 4.66 0.0 0 0 311.87 278.43
  L 311.87 297.53
  A 4.66 4.66 0.0 0 0 316.53 302.19
  L 335.67 302.19
  A 4.66 4.66 0.0 0 0 340.33 297.53
  L 340.33 278.43
  Z
  M 302.24 316.48
  A 4.70 4.70 0.0 0 0 297.54 311.78
  L 202.48 311.78
  A 4.70 4.70 0.0 0 0 197.78 316.48
  L 197.78 335.58
  A 4.70 4.70 0.0 0 0 202.48 340.28
  L 297.54 340.28
  A 4.70 4.70 0.0 0 0 302.24 335.58
  L 302.24 316.48
  Z"
/>
<path fill="#000000" d="
  M 188.20 259.56
  A 4.67 4.67 0.0 0 1 183.53 264.23
  L 164.37 264.23
  A 4.67 4.67 0.0 0 1 159.70 259.56
  L 159.70 240.46
  A 4.67 4.67 0.0 0 1 164.37 235.79
  L 183.53 235.79
  A 4.67 4.67 0.0 0 1 188.20 240.46
  L 188.20 259.56
  Z
  M 178.6255 245.5764
  A 0.32 0.32 0.0 0 0 178.3066 245.2553
  L 169.5666 245.2248
  A 0.32 0.32 0.0 0 0 169.2455 245.5437
  L 169.2145 254.4236
  A 0.32 0.32 0.0 0 0 169.5334 254.7447
  L 178.2734 254.7752
  A 0.32 0.32 0.0 0 0 178.5945 254.4563
  L 178.6255 245.5764
  Z"
/>
<path fill="#000000" d="
  M 226.2467 259.5451
  A 4.66 4.66 0.0 0 1 221.5948 264.2133
  L 202.4549 264.2467
  A 4.66 4.66 0.0 0 1 197.7867 259.5948
  L 197.7533 240.4549
  A 4.66 4.66 0.0 0 1 202.4052 235.7867
  L 221.5451 235.7533
  A 4.66 4.66 0.0 0 1 226.2133 240.4052
  L 226.2467 259.5451
  Z
  M 216.73 245.58
  A 0.34 0.34 0.0 0 0 216.39 245.24
  L 207.57 245.24
  A 0.34 0.34 0.0 0 0 207.23 245.58
  L 207.23 254.42
  A 0.34 0.34 0.0 0 0 207.57 254.76
  L 216.39 254.76
  A 0.34 0.34 0.0 0 0 216.73 254.42
  L 216.73 245.58
  Z"
/>
<path fill="#000000" d="
  M 264.2467 259.5852
  A 4.63 4.63 0.0 0 1 259.6248 264.2232
  L 240.4449 264.2567
  A 4.63 4.63 0.0 0 1 235.8068 259.6348
  L 235.7733 240.4348
  A 4.63 4.63 0.0 0 1 240.3952 235.7968
  L 259.5751 235.7633
  A 4.63 4.63 0.0 0 1 264.2132 240.3852
  L 264.2467 259.5852
  Z
  M 254.7348 245.6334
  A 0.41 0.41 0.0 0 0 254.3234 245.2248
  L 245.6234 245.2552
  A 0.41 0.41 0.0 0 0 245.2148 245.6666
  L 245.2452 254.3666
  A 0.41 0.41 0.0 0 0 245.6566 254.7752
  L 254.3566 254.7448
  A 0.41 0.41 0.0 0 0 254.7652 254.3334
  L 254.7348 245.6334
  Z"
/>
<path fill="#000000" d="
  M 302.2668 259.5852
  A 4.62 4.62 0.0 0 1 297.6548 264.2132
  L 278.4549 264.2467
  A 4.62 4.62 0.0 0 1 273.8268 259.6348
  L 273.7932 240.4148
  A 4.62 4.62 0.0 0 1 278.4052 235.7868
  L 297.6051 235.7533
  A 4.62 4.62 0.0 0 1 302.2332 240.3652
  L 302.2668 259.5852
  Z
  M 292.7622 245.5317
  A 0.30 0.30 0.0 0 0 292.4617 245.2322
  L 283.5617 245.2478
  A 0.30 0.30 0.0 0 0 283.2622 245.5483
  L 283.2778 254.4683
  A 0.30 0.30 0.0 0 0 283.5783 254.7678
  L 292.4783 254.7522
  A 0.30 0.30 0.0 0 0 292.7778 254.4517
  L 292.7622 245.5317
  Z"
/>
<path fill="#000000" d="
  M 340.31 259.51
  A 4.72 4.72 0.0 0 1 335.59 264.23
  L 316.51 264.23
  A 4.72 4.72 0.0 0 1 311.79 259.51
  L 311.79 240.49
  A 4.72 4.72 0.0 0 1 316.51 235.77
  L 335.59 235.77
  A 4.72 4.72 0.0 0 1 340.31 240.49
  L 340.31 259.51
  Z
  M 330.8054 245.5865
  A 0.34 0.34 0.0 0 0 330.4666 245.2453
  L 321.7267 245.2148
  A 0.34 0.34 0.0 0 0 321.3855 245.5536
  L 321.3546 254.4135
  A 0.34 0.34 0.0 0 0 321.6934 254.7547
  L 330.4333 254.7852
  A 0.34 0.34 0.0 0 0 330.7745 254.4464
  L 330.8054 245.5865
  Z"
/>
<rect fill="#fdd885" x="-4.69" y="-4.76" transform="translate(173.92,250.00) rotate(0.2)" width="9.38" height="9.52" rx="0.32"/>
<rect fill="#fdd885" x="207.23" y="245.24" width="9.50" height="9.52" rx="0.34"/>
<rect fill="#fdd885" x="-4.76" y="-4.76" transform="translate(249.99,250.00) rotate(-0.2)" width="9.52" height="9.52" rx="0.41"/>
<rect fill="#fdd885" x="-4.75" y="-4.76" transform="translate(288.02,250.00) rotate(-0.1)" width="9.50" height="9.52" rx="0.30"/>
<rect fill="#fdd885" x="-4.71" y="-4.77" transform="translate(326.08,250.00) rotate(0.2)" width="9.42" height="9.54" rx="0.34"/>
<path fill="#fdfad7" d="
  M 140.66 258.15
  Q 140.72 295.57 140.64 333.37
  Q 140.62 343.87 142.06 347.42
  Q 145.67 356.32 156.29 359.08
  Q 157.47 359.38 156.25 359.42
  Q 150.64 359.56 144.47 358.92
  Q 142.32 357.82 140.11 357.87
  A 1.73 1.72 -18.7 0 1 138.68 357.17
  Q 128.74 343.81 125.46 326.76
  Q 122.71 312.51 125.11 298.27
  Q 128.78 276.48 140.66 258.15
  Z"
/>
<path fill="#000000" d="
  M 188.2266 297.4651
  A 4.69 4.69 0.0 0 1 183.5448 302.1633
  L 164.4248 302.1967
  A 4.69 4.69 0.0 0 1 159.7266 297.5149
  L 159.6934 278.4949
  A 4.69 4.69 0.0 0 1 164.3752 273.7967
  L 183.4952 273.7633
  A 4.69 4.69 0.0 0 1 188.1934 278.4451
  L 188.2266 297.4651
  Z
  M 178.6175 283.7082
  A 0.45 0.45 0.0 0 0 178.1683 283.2574
  L 169.6883 283.2426
  A 0.45 0.45 0.0 0 0 169.2375 283.6918
  L 169.2225 292.2918
  A 0.45 0.45 0.0 0 0 169.6717 292.7426
  L 178.1517 292.7574
  A 0.45 0.45 0.0 0 0 178.6025 292.3082
  L 178.6175 283.7082
  Z"
/>
<path fill="#000000" d="
  M 226.1963 297.6696
  A 4.61 4.61 0.0 0 1 221.5703 302.2635
  L 202.3304 302.1963
  A 4.61 4.61 0.0 0 1 197.7365 297.5703
  L 197.8037 278.3304
  A 4.61 4.61 0.0 0 1 202.4297 273.7365
  L 221.6696 273.8037
  A 4.61 4.61 0.0 0 1 226.2635 278.4297
  L 226.1963 297.6696
  Z
  M 216.6922 283.5718
  A 0.30 0.30 0.0 0 0 216.3917 283.2723
  L 207.5517 283.2877
  A 0.30 0.30 0.0 0 0 207.2523 283.5882
  L 207.2678 292.4682
  A 0.30 0.30 0.0 0 0 207.5683 292.7677
  L 216.4083 292.7523
  A 0.30 0.30 0.0 0 0 216.7077 292.4518
  L 216.6922 283.5718
  Z"
/>
<path fill="#000000" d="
  M 264.2568 297.5851
  A 4.62 4.62 0.0 0 1 259.6448 302.2132
  L 240.4249 302.2468
  A 4.62 4.62 0.0 0 1 235.7968 297.6348
  L 235.7632 278.4149
  A 4.62 4.62 0.0 0 1 240.3752 273.7868
  L 259.5951 273.7532
  A 4.62 4.62 0.0 0 1 264.2232 278.3652
  L 264.2568 297.5851
  Z
  M 254.74 283.72
  A 0.45 0.45 0.0 0 0 254.29 283.27
  L 245.71 283.27
  A 0.45 0.45 0.0 0 0 245.26 283.72
  L 245.26 292.30
  A 0.45 0.45 0.0 0 0 245.71 292.75
  L 254.29 292.75
  A 0.45 0.45 0.0 0 0 254.74 292.30
  L 254.74 283.72
  Z"
/>
<path fill="#000000" d="
  M 302.2567 297.5751
  A 4.63 4.63 0.0 0 1 297.6348 302.2132
  L 278.4349 302.2467
  A 4.63 4.63 0.0 0 1 273.7968 297.6248
  L 273.7633 278.4249
  A 4.63 4.63 0.0 0 1 278.3852 273.7868
  L 297.5851 273.7533
  A 4.63 4.63 0.0 0 1 302.2232 278.3752
  L 302.2567 297.5751
  Z
  M 292.7149 283.6736
  A 0.41 0.41 0.0 0 0 292.3035 283.2650
  L 283.7035 283.2950
  A 0.41 0.41 0.0 0 0 283.2949 283.7065
  L 283.3251 292.3464
  A 0.41 0.41 0.0 0 0 283.7365 292.7550
  L 292.3365 292.7250
  A 0.41 0.41 0.0 0 0 292.7451 292.3135
  L 292.7149 283.6736
  Z"
/>
<path fill="#000000" d="
  M 340.33 297.53
  A 4.66 4.66 0.0 0 1 335.67 302.19
  L 316.53 302.19
  A 4.66 4.66 0.0 0 1 311.87 297.53
  L 311.87 278.43
  A 4.66 4.66 0.0 0 1 316.53 273.77
  L 335.67 273.77
  A 4.66 4.66 0.0 0 1 340.33 278.43
  L 340.33 297.53
  Z
  M 330.7675 283.7082
  A 0.43 0.43 0.0 0 0 330.3383 283.2774
  L 321.8583 283.2626
  A 0.43 0.43 0.0 0 0 321.4275 283.6919
  L 321.4125 292.3318
  A 0.43 0.43 0.0 0 0 321.8417 292.7626
  L 330.3217 292.7774
  A 0.43 0.43 0.0 0 0 330.7525 292.3481
  L 330.7675 283.7082
  Z"
/>
<rect fill="#fdd885" x="-4.69" y="-4.75" transform="translate(173.92,288.00) rotate(0.1)" width="9.38" height="9.50" rx="0.45"/>
<rect fill="#fdd885" x="-4.72" y="-4.74" transform="translate(211.98,288.02) rotate(-0.1)" width="9.44" height="9.48" rx="0.30"/>
<rect fill="#fdd885" x="245.26" y="283.27" width="9.48" height="9.48" rx="0.45"/>
<rect fill="#fdd885" x="-4.71" y="-4.73" transform="translate(288.02,288.01) rotate(-0.2)" width="9.42" height="9.46" rx="0.41"/>
<rect fill="#fdd885" x="-4.67" y="-4.75" transform="translate(326.09,288.02) rotate(0.1)" width="9.34" height="9.50" rx="0.43"/>
<path fill="#000000" d="
  M 302.24 335.58
  A 4.70 4.70 0.0 0 1 297.54 340.28
  L 202.48 340.28
  A 4.70 4.70 0.0 0 1 197.78 335.58
  L 197.78 316.48
  A 4.70 4.70 0.0 0 1 202.48 311.78
  L 297.54 311.78
  A 4.70 4.70 0.0 0 1 302.24 316.48
  L 302.24 335.58
  Z
  M 292.80 321.72
  A 0.40 0.40 0.0 0 0 292.40 321.32
  L 207.58 321.32
  A 0.40 0.40 0.0 0 0 207.18 321.72
  L 207.18 330.38
  A 0.40 0.40 0.0 0 0 207.58 330.78
  L 292.40 330.78
  A 0.40 0.40 0.0 0 0 292.80 330.38
  L 292.80 321.72
  Z"
/>
<path fill="#000000" d="
  M 389.25 328.50
  L 384.83 328.49
  A 2.10 2.10 0.0 0 1 383.26 327.76
  Q 382.22 326.57 382.47 325.33
  Q 382.90 323.18 385.09 323.18
  L 389.28 323.18
  Q 390.00 323.18 390.00 322.47
  L 389.97 319.22
  Q 389.96 316.73 392.19 315.61
  Q 392.65 315.38 393.10 315.51
  Q 395.09 316.08 395.24 317.91
  Q 395.41 319.97 395.26 322.42
  Q 395.22 323.19 395.99 323.19
  L 400.05 323.17
  Q 402.05 323.16 402.75 325.04
  Q 402.91 325.48 402.83 325.93
  Q 402.38 328.51 399.76 328.50
  L 396.04 328.49
  Q 395.31 328.48 395.31 329.21
  L 395.30 333.30
  Q 395.29 335.13 393.68 336.00
  Q 393.13 336.29 392.57 336.17
  Q 389.95 335.61 389.97 332.93
  L 389.99 329.25
  Q 390.00 328.50 389.25 328.50
  Z"
/>
<circle fill="#000000" cx="88.63" cy="325.81" r="4.96"/>
<rect fill="#fdd885" x="207.18" y="321.32" width="85.62" height="9.46" rx="0.40"/>
<rect fill="#000000" x="54.03" y="359.28" width="23.64" height="6.38" rx="3.09"/>
<rect fill="#000000" x="-5.64" y="-3.15" transform="translate(429.98,362.46) rotate(0.2)" width="11.28" height="6.30" rx="2.97"/>
<circle fill="#000000" cx="442.94" cy="362.46" r="3.09"/>
</svg>
